<?xml version="1.0" encoding="utf-8"?>
<!-- Generator: Adobe Illustrator 22.0.0, SVG Export Plug-In . SVG Version: 6.00 Build 0)  -->
<svg version="1.1" xmlns="http://www.w3.org/2000/svg" xmlns:xlink="http://www.w3.org/1999/xlink" x="0px" y="0px"
	 viewBox="0 0 64 64"  style="enable-background:new 0 0 64 64;" xml:space="preserve">
<g id="Layer_1">
</g>
<g id="Layer_2">
	<g>
		<path d="M48.5,46.5H16.5C12.3,46.5,9,43.1,9,39v-2.4c-0.4-0.9-0.6-1.8-0.7-2.7l0-0.2l0-2.1c0-0.2,0-0.4,0.1-0.6
			c0.7-4.9,5-8.6,10.1-8.6c1,0,2,0.1,2.9,0.4c2.5-3.4,6.5-5.4,10.7-5.4c5.9,0,11.1,3.9,12.8,9.5c2.4,0.1,4.7,0.9,6.6,2.4
			c0.4,0.3,0.8,0.7,1.2,1c0.7,0.7,1.2,1.4,1.7,2.3c0.6,1,1,2.1,1.3,3.3l0,0.3l0,4.7c0,0.2-0.1,0.4-0.2,0.6
			C54.6,44.5,51.8,46.5,48.5,46.5z M11.1,33.7c0.1,0.7,0.3,1.3,0.6,2.1l0.1,0.3v3c0,2.5,2.1,4.6,4.6,4.6h32.1c2,0,3.7-1.2,4.3-3
			c0,0,0-0.1,0-0.1v-4.1c-0.2-0.8-0.5-1.5-0.9-2.2c-0.4-0.7-0.8-1.2-1.3-1.7c-0.3-0.3-0.6-0.5-0.9-0.8c-1.5-1.2-3.4-1.8-5.3-1.8
			c0,0-0.1,0-0.1,0l-0.2,0l-0.1,0l-1.3,0.3l-0.3-1.4c-1-4.9-5.3-8.4-10.3-8.4c-3.7,0-7,1.9-8.9,5l-0.6,1l-1.3-0.5
			c-0.8-0.3-1.8-0.5-2.7-0.5c-3.7,0-6.8,2.6-7.3,6.3c0,0.1,0,0.2,0,0.2V33.7z"/>
	</g>
</g>
</svg>
