<?xml version="1.0" encoding="utf-8"?>
<!-- Generator: Adobe Illustrator 24.1.2, SVG Export Plug-In . SVG Version: 6.00 Build 0)  -->
<svg version="1.0" id="Layer_1" xmlns="http://www.w3.org/2000/svg" xmlns:xlink="http://www.w3.org/1999/xlink" x="0px" y="0px"
	 viewBox="0 0 70 50" style="enable-background:new 0 0 70 50;" xml:space="preserve">
<style type="text/css">
	.st0{fill:#FFFFFF;}
</style>
<g id="BACKGROUND">
</g>
<g id="OBJECTS">
	<g>
		<g>
			<path class="st0" d="M6.2,42.3c-0.5-0.2-0.9-0.5-1.2-0.9l1.2-1.5c0.4,0.6,0.9,0.8,1.4,0.8c0.3,0,0.6-0.1,0.8-0.3s0.3-0.5,0.3-0.9
				v-3.4H5.9v-1.8h5v5.2c0,1-0.3,1.8-0.8,2.3s-1.3,0.8-2.3,0.8C7.2,42.6,6.7,42.5,6.2,42.3z"/>
			<path class="st0" d="M13.7,42.2c-0.5-0.3-1-0.7-1.3-1.1c-0.3-0.5-0.5-1-0.5-1.7c0-0.6,0.2-1.2,0.5-1.6c0.3-0.5,0.7-0.9,1.2-1.1
				c0.5-0.3,1.1-0.4,1.8-0.4c0.7,0,1.3,0.1,1.8,0.4c0.5,0.3,1,0.6,1.2,1.1s0.4,1,0.4,1.7c0,0.6-0.1,1.2-0.4,1.7s-0.7,0.9-1.2,1.1
				c-0.5,0.3-1.1,0.4-1.8,0.4C14.8,42.6,14.2,42.4,13.7,42.2z M16.4,40.4c0.2-0.3,0.4-0.6,0.4-1.1s-0.1-0.8-0.4-1.1
				c-0.2-0.3-0.6-0.4-0.9-0.4s-0.7,0.1-0.9,0.4c-0.2,0.3-0.4,0.6-0.4,1.1s0.1,0.8,0.4,1.1c0.2,0.3,0.6,0.4,0.9,0.4
				S16.2,40.7,16.4,40.4z"/>
			<path class="st0" d="M25.9,36.8c0.5,0.5,0.7,1.1,0.7,2.1v3.6h-2.2v-3.2c0-0.8-0.3-1.3-1-1.3c-0.4,0-0.7,0.1-0.9,0.4
				c-0.2,0.2-0.3,0.6-0.3,1.1v3H20V34h2.2v2.9c0.2-0.2,0.5-0.4,0.8-0.5c0.3-0.1,0.7-0.2,1-0.2C24.8,36.1,25.4,36.4,25.9,36.8z"/>
			<path class="st0" d="M33.9,36.8c0.5,0.5,0.7,1.1,0.7,2.1v3.6h-2.2v-3.2c0-0.8-0.3-1.3-1-1.3c-0.4,0-0.7,0.1-0.9,0.4
				c-0.2,0.2-0.3,0.6-0.3,1.1v3H28v-6.2h2V37c0.2-0.3,0.5-0.4,0.9-0.6c0.3-0.1,0.7-0.2,1.1-0.2C32.8,36.1,33.4,36.4,33.9,36.8z"/>
			<path class="st0" d="M39.4,34.4h3.8c0.9,0,1.7,0.2,2.3,0.5c0.7,0.3,1.2,0.8,1.6,1.4c0.4,0.6,0.6,1.3,0.6,2.1s-0.2,1.5-0.6,2.1
				c-0.4,0.6-0.9,1.1-1.6,1.4c-0.7,0.4-1.5,0.6-2.3,0.6h-3.8V34.4z M43.1,40.7c0.7,0,1.2-0.2,1.7-0.6c0.4-0.4,0.6-0.9,0.6-1.6
				s-0.2-1.2-0.6-1.6c-0.4-0.4-1-0.6-1.7-0.6h-1.4v4.4C41.7,40.7,43.1,40.7,43.1,40.7z"/>
			<path class="st0" d="M50.6,42.1c-0.7-0.4-1.2-0.9-1.6-1.5c-0.4-0.6-0.6-1.3-0.6-2.1s0.2-1.5,0.6-2.1c0.4-0.6,0.9-1.1,1.6-1.5
				c0.7-0.4,1.4-0.5,2.3-0.5c0.8,0,1.6,0.2,2.3,0.5c0.7,0.4,1.2,0.9,1.6,1.5c0.4,0.6,0.6,1.3,0.6,2.1s-0.2,1.5-0.6,2.1
				s-0.9,1.1-1.6,1.5c-0.7,0.4-1.4,0.5-2.3,0.5S51.3,42.4,50.6,42.1z M54,40.5c0.3-0.2,0.6-0.5,0.8-0.8s0.3-0.7,0.3-1.2
				s-0.1-0.8-0.3-1.2c-0.2-0.3-0.5-0.6-0.8-0.8c-0.3-0.2-0.7-0.3-1.1-0.3s-0.8,0.1-1.1,0.3c-0.3,0.2-0.6,0.5-0.8,0.8
				s-0.3,0.7-0.3,1.2s0.1,0.8,0.3,1.2s0.5,0.6,0.8,0.8s0.7,0.3,1.1,0.3S53.6,40.6,54,40.5z"/>
			<path class="st0" d="M65,40.7v1.8h-6.4v-8h6.3v1.8h-4v1.2h3.6v1.7h-3.6v1.5H65z"/>
		</g>
		<g>
			<path class="st0" d="M18.4,45.8v3.7h-0.5v-1.6h-2.1v1.6h-0.5v-3.7h0.5v1.6h2.1v-1.6H18.4z"/>
			<path class="st0" d="M20.8,46.2h-1.3v-0.5h3v0.5h-1.3v3.3h-0.5L20.8,46.2L20.8,46.2z"/>
			<path class="st0" d="M27.1,49.5v-2.7L25.8,49h-0.2l-1.3-2.2v2.7h-0.5v-3.7h0.4l1.5,2.6l1.5-2.6h0.4v3.7H27.1z"/>
			<path class="st0" d="M29.2,45.8h0.5V49h2v0.5h-2.5V45.8z"/>
			<path class="st0" d="M34,45h0.5l-1.7,5h-0.5L34,45z"/>
			<path class="st0" d="M35.9,49.3c-0.3-0.2-0.5-0.4-0.7-0.7s-0.3-0.6-0.3-1s0.1-0.7,0.3-1s0.4-0.5,0.7-0.7s0.6-0.2,1-0.2
				c0.3,0,0.6,0,0.8,0.1s0.4,0.2,0.6,0.4L38,46.5c-0.3-0.3-0.6-0.4-1-0.4c-0.3,0-0.5,0.1-0.7,0.2c-0.2,0.1-0.4,0.3-0.5,0.5
				s-0.2,0.5-0.2,0.7c0,0.3,0.1,0.5,0.2,0.7c0.1,0.2,0.3,0.4,0.5,0.5s0.5,0.2,0.7,0.2c0.4,0,0.8-0.1,1-0.4l0.3,0.3
				c-0.2,0.2-0.4,0.3-0.6,0.4c-0.2,0.1-0.5,0.1-0.8,0.1C36.5,49.5,36.2,49.4,35.9,49.3z"/>
			<path class="st0" d="M39.8,49.4c-0.3-0.1-0.5-0.2-0.6-0.3l0.2-0.4c0.1,0.1,0.3,0.2,0.5,0.3s0.4,0.1,0.7,0.1s0.5-0.1,0.7-0.2
				c0.2-0.1,0.2-0.2,0.2-0.4c0-0.1,0-0.2-0.1-0.3s-0.2-0.1-0.3-0.2s-0.3-0.1-0.5-0.1c-0.3-0.1-0.5-0.1-0.7-0.2
				c-0.2-0.1-0.3-0.2-0.4-0.3c-0.1-0.1-0.2-0.3-0.2-0.6c0-0.2,0.1-0.4,0.2-0.5c0.1-0.2,0.3-0.3,0.5-0.4c0.2-0.1,0.5-0.1,0.8-0.1
				c0.2,0,0.4,0,0.6,0.1c0.2,0.1,0.4,0.1,0.5,0.2l-0.2,0.4c-0.2-0.1-0.3-0.2-0.5-0.2s-0.3-0.1-0.5-0.1c-0.3,0-0.5,0.1-0.7,0.2
				s-0.2,0.2-0.2,0.4c0,0.1,0,0.2,0.1,0.3s0.2,0.1,0.3,0.2c0.1,0,0.3,0.1,0.5,0.1c0.3,0.1,0.5,0.1,0.7,0.2s0.3,0.2,0.4,0.3
				C42,48,42,48.2,42,48.5c0,0.2-0.1,0.4-0.2,0.5s-0.3,0.3-0.5,0.4s-0.4,0.1-0.7,0.1C40.3,49.5,40.1,49.5,39.8,49.4z"/>
			<path class="st0" d="M43.6,49.4c-0.3-0.1-0.5-0.2-0.6-0.3l0.2-0.4c0.1,0.1,0.3,0.2,0.5,0.3s0.4,0.1,0.7,0.1s0.5-0.1,0.7-0.2
				c0.2-0.1,0.2-0.2,0.2-0.4c0-0.1,0-0.2-0.1-0.3S45,48.1,44.9,48s-0.3-0.1-0.5-0.1c-0.3-0.1-0.5-0.1-0.7-0.2
				c-0.2-0.1-0.3-0.2-0.4-0.3c-0.1-0.1-0.2-0.3-0.2-0.6c0-0.2,0.1-0.4,0.2-0.5c0.1-0.2,0.3-0.3,0.5-0.4c0.2-0.1,0.5-0.1,0.8-0.1
				c0.2,0,0.4,0,0.6,0.1c0.2,0.1,0.4,0.1,0.5,0.2l-0.2,0.4c-0.2-0.1-0.3-0.2-0.5-0.2s-0.3-0.1-0.5-0.1c-0.3,0-0.5,0.1-0.7,0.2
				s-0.2,0.2-0.2,0.4c0,0.1,0,0.2,0.1,0.3s0.2,0.1,0.3,0.2c0.1,0,0.3,0.1,0.5,0.1c0.3,0.1,0.5,0.1,0.7,0.2s0.3,0.2,0.4,0.3
				c0.1,0.1,0.2,0.3,0.2,0.6c0,0.2-0.1,0.4-0.2,0.5s-0.3,0.3-0.5,0.4s-0.4,0.1-0.7,0.1C44.1,49.5,43.9,49.5,43.6,49.4z"/>
			<path class="st0" d="M48.2,45h0.5L47,50h-0.5L48.2,45z"/>
			<path class="st0" d="M49.3,49.4c-0.2-0.1-0.3-0.2-0.5-0.4l0.3-0.4c0.2,0.3,0.5,0.4,0.8,0.4c0.2,0,0.4-0.1,0.5-0.2
				c0.1-0.1,0.2-0.3,0.2-0.6v-2.1h-1.3v-0.5h1.9v2.5c0,0.4-0.1,0.7-0.3,0.9s-0.5,0.3-0.9,0.3C49.7,49.5,49.5,49.5,49.3,49.4z"/>
			<path class="st0" d="M53,49.4c-0.3-0.1-0.5-0.2-0.6-0.3l0.2-0.4c0.1,0.1,0.3,0.2,0.5,0.3s0.4,0.1,0.7,0.1s0.5-0.1,0.7-0.2
				s0.2-0.2,0.2-0.4c0-0.1,0-0.2-0.1-0.3s-0.2-0.1-0.3-0.2s-0.3-0.1-0.5-0.1c-0.3-0.1-0.5-0.1-0.7-0.2c-0.2-0.1-0.3-0.2-0.4-0.3
				c-0.1-0.1-0.2-0.3-0.2-0.6c0-0.2,0.1-0.4,0.2-0.5c0.1-0.2,0.3-0.3,0.5-0.4c0.2-0.1,0.5-0.1,0.8-0.1c0.2,0,0.4,0,0.6,0.1
				c0.2,0.1,0.4,0.1,0.5,0.2l-0.2,0.4c-0.2-0.1-0.3-0.2-0.5-0.2c-0.2-0.1-0.3-0.1-0.5-0.1c-0.3,0-0.5,0.1-0.7,0.2S53,46.6,53,46.8
				c0,0.1,0,0.2,0.1,0.3s0.2,0.1,0.3,0.2c0.1,0,0.3,0.1,0.5,0.1c0.3,0.1,0.5,0.1,0.7,0.2c0.2,0.1,0.3,0.2,0.4,0.3
				c0.1,0.1,0.2,0.3,0.2,0.6c0,0.2-0.1,0.4-0.2,0.5c-0.1,0.2-0.3,0.3-0.5,0.4s-0.4,0.1-0.7,0.1S53.2,49.5,53,49.4z"/>
		</g>
		<g>
			<g>
				<path class="st0" d="M17.8,20.5l7.9-9.2c0.5-0.6,1.5-0.2,1.5,0.5V14c0,0.6-0.2,1.2-0.6,1.6l-4.2,4.9l4.2,4.9
					c0.4,0.4,0.6,1,0.6,1.6v2.2c0,0.8-1,1.1-1.5,0.5L17.8,20.5z"/>
				<path class="st0" d="M17.8,20.5l7.9,9.2c0.5,0.6,1.5,0.2,1.5-0.5V27c0-0.6-0.2-1.2-0.6-1.6l-4.2-4.9H17.8z"/>
			</g>
			<g>
				<path class="st0" d="M52.9,20.5L45,11.3c-0.5-0.6-1.5-0.2-1.5,0.5V14c0,0.6,0.2,1.2,0.6,1.6l4.2,4.9l-4.2,4.9
					c-0.4,0.4-0.6,1-0.6,1.6v2.2c0,0.8,1,1.1,1.5,0.5L52.9,20.5z"/>
				<path class="st0" d="M52.9,20.5L45,29.7c-0.5,0.6-1.5,0.2-1.5-0.5V27c0-0.6,0.2-1.2,0.6-1.6l4.2-4.9H52.9z"/>
			</g>
		</g>
		<path class="st0" d="M36.8,11.4L30.4,29c-0.2,0.4,0.2,0.9,0.6,0.9h2.3c0.3,0,0.5-0.2,0.6-0.4l6.4-17.6c0.2-0.4-0.2-0.9-0.6-0.9
			h-2.3C37.1,11,36.9,11.2,36.8,11.4z"/>
	</g>
</g>
</svg>
